<svg width="16" height="16" viewBox="0 0 16 16" fill="none" xmlns="http://www.w3.org/2000/svg">
<path d="M7.10329 0.557969C7.18581 0.390504 7.31357 0.249484 7.4721 0.150874C7.63063 0.0522631 7.81359 0 8.00029 0C8.18699 0 8.36995 0.0522631 8.52848 0.150874C8.68701 0.249484 8.81476 0.390504 8.89729 0.557969L10.8273 4.46897L15.1443 5.09597C15.329 5.12279 15.5025 5.20077 15.6452 5.32107C15.7879 5.44138 15.894 5.59922 15.9517 5.77673C16.0093 5.95424 16.0161 6.14434 15.9714 6.32553C15.9266 6.50671 15.832 6.67175 15.6983 6.80197L12.5743 9.84697L13.3123 14.146C13.3438 14.3299 13.3232 14.5189 13.2529 14.6917C13.1826 14.8646 13.0653 15.0143 12.9144 15.1239C12.7634 15.2336 12.5848 15.2988 12.3987 15.3123C12.2126 15.3257 12.0264 15.2868 11.8613 15.2L8.00129 13.17L4.13929 15.2C3.97417 15.2865 3.78815 15.3252 3.60222 15.3116C3.41629 15.298 3.23785 15.2328 3.08705 15.1232C2.93626 15.0135 2.8191 14.864 2.74882 14.6913C2.67853 14.5186 2.65791 14.3297 2.68929 14.146L3.42629 9.84597L0.30229 6.80197C0.168587 6.67175 0.0739938 6.50671 0.0292122 6.32553C-0.0155694 6.14434 -0.00875233 5.95424 0.0488922 5.77673C0.106537 5.59922 0.212708 5.44138 0.355395 5.32107C0.498082 5.20077 0.67159 5.12279 0.85629 5.09597L5.17329 4.46897L7.10329 0.558969V0.557969ZM8.00029 0.999969L6.07029 4.91197C5.99853 5.05736 5.89248 5.18312 5.7613 5.27841C5.63013 5.3737 5.47774 5.43567 5.31729 5.45897L0.99929 6.08597L4.12329 9.13097C4.23926 9.24418 4.32598 9.38389 4.37598 9.53806C4.42598 9.69223 4.43775 9.85624 4.41029 10.016L3.67329 14.315L7.53329 12.285C7.67684 12.2095 7.8366 12.17 7.99879 12.17C8.16098 12.17 8.32074 12.2095 8.46429 12.285L12.3253 14.315L11.5883 10.015C11.561 9.85539 11.5729 9.69158 11.6228 9.5376C11.6728 9.38362 11.7595 9.24408 11.8753 9.13097L14.9993 6.08597L10.6823 5.45897C10.522 5.43552 10.3698 5.37348 10.2388 5.2782C10.1078 5.18291 10.002 5.05723 9.93029 4.91197L8.00029 0.999969Z" fill="black"/>
</svg>
