<svg width="16" height="16" viewBox="0 0 16 16" fill="none" xmlns="http://www.w3.org/2000/svg">
<path d="M7.5 1H8.5V3.5H7.5V1Z" fill="black"/>
<path d="M10.8435 4.44997L12.5965 2.69647L13.3035 3.40397L11.5505 5.15697L10.8435 4.44997Z" fill="black"/>
<path d="M12.5 7.5H15V8.5H12.5V7.5Z" fill="black"/>
<path d="M10.8435 11.55L11.5505 10.843L13.3035 12.596L12.5965 13.3035L10.8435 11.55Z" fill="black"/>
<path d="M7.5 12.5H8.5V15H7.5V12.5Z" fill="black"/>
<path d="M2.69699 12.596L4.44999 10.843L5.15699 11.5505L3.40399 13.3035L2.69699 12.596Z" fill="black"/>
<path d="M1 7.5H3.5V8.5H1V7.5Z" fill="black"/>
<path d="M2.69699 3.40397L3.40399 2.69647L5.15699 4.44997L4.44999 5.15697L2.69699 3.40397Z" fill="black"/>
<path d="M8 6C8.39556 6 8.78224 6.1173 9.11114 6.33706C9.44004 6.55682 9.69638 6.86918 9.84776 7.23463C9.99914 7.60009 10.0387 8.00222 9.96157 8.39018C9.8844 8.77814 9.69392 9.13451 9.41421 9.41421C9.13451 9.69392 8.77814 9.8844 8.39018 9.96157C8.00222 10.0387 7.60009 9.99913 7.23463 9.84776C6.86918 9.69638 6.55682 9.44004 6.33706 9.11114C6.1173 8.78224 6 8.39556 6 8C6.00066 7.46977 6.21159 6.96145 6.58652 6.58652C6.96145 6.21159 7.46977 6.00066 8 6ZM8 5C7.40666 5 6.82664 5.17595 6.33329 5.50559C5.83994 5.83524 5.45543 6.30377 5.22836 6.85195C5.0013 7.40013 4.94189 8.00333 5.05765 8.58527C5.1734 9.16721 5.45912 9.70176 5.87868 10.1213C6.29824 10.5409 6.83279 10.8266 7.41473 10.9424C7.99667 11.0581 8.59987 10.9987 9.14805 10.7716C9.69623 10.5446 10.1648 10.1601 10.4944 9.66671C10.8241 9.17336 11 8.59334 11 8C11 7.20435 10.6839 6.44129 10.1213 5.87868C9.55871 5.31607 8.79565 5 8 5Z" fill="black"/>
</svg>
