<svg width="26" height="28" viewBox="0 0 26 28" fill="none" xmlns="http://www.w3.org/2000/svg">
<path fill-rule="evenodd" clip-rule="evenodd" d="M21.1712 15.4267V15.4261L11.9745 9.52177C11.8688 9.45393 11.7553 9.41836 11.643 9.41027C11.2597 9.38209 10.8896 9.67387 10.8896 10.0963V26.942C10.8896 27.488 11.5077 27.8157 11.9734 27.5167L25.0931 19.0939C25.5155 18.8227 25.5155 18.2157 25.0931 17.9445L21.1712 15.4267ZM12.5722 8.60889L21.1712 14.1294V6.97621C21.1712 6.77574 21.0867 6.58438 20.938 6.4483L14.1015 0.190994C13.8796 -0.0121048 13.5538 -0.0578728 13.2836 0.0760852L0.400975 6.46296C0.155209 6.58481 0 6.83363 0 7.10578V19.5158C0 19.9128 0.325048 20.2347 0.726015 20.2347H9.79199V10.0964C9.79199 8.66922 11.3913 7.85076 12.5722 8.60889Z" fill="white"/>
</svg>
