<svg width="35" height="35" viewBox="0 0 35 35" fill="none" xmlns="http://www.w3.org/2000/svg">
<path fill-rule="evenodd" clip-rule="evenodd" d="M27.0792 24.1613C24.9714 27.1868 21.4669 29.1667 17.5 29.1667C13.5338 29.1667 10.0299 27.1876 7.92191 24.1631C9.98607 21.8039 13.506 20.2501 17.5013 20.2501C21.4957 20.2501 25.0148 21.8031 27.0792 24.1613ZM32.0833 17.5C32.0833 25.5542 25.5541 32.0834 17.5 32.0834C9.44581 32.0834 2.91663 25.5542 2.91663 17.5C2.91663 9.44587 9.44581 2.91669 17.5 2.91669C25.5541 2.91669 32.0833 9.44587 32.0833 17.5ZM17.4971 18.5952C19.7325 18.5952 21.5446 16.7831 21.5446 14.5478C21.5446 12.3124 19.7325 10.5003 17.4971 10.5003C15.2618 10.5003 13.4497 12.3124 13.4497 14.5478C13.4497 16.7831 15.2618 18.5952 17.4971 18.5952Z" fill="white"/>
</svg>
