<svg width="14" height="14" viewBox="0 0 14 14" fill="none" xmlns="http://www.w3.org/2000/svg">
<path d="M12.5 3.001H13.5C13.6326 3.001 13.7598 2.94832 13.8536 2.85455C13.9473 2.76078 14 2.63361 14 2.501C14 2.36839 13.9473 2.24121 13.8536 2.14745C13.7598 2.05368 13.6326 2.001 13.5 2.001H9.5V0.5C9.5 0.367392 9.44732 0.240215 9.35355 0.146447C9.25979 0.0526784 9.13261 0 9 0H5C4.86739 0 4.74021 0.0526784 4.64645 0.146447C4.55268 0.240215 4.5 0.367392 4.5 0.5V2.001H0.5C0.367392 2.001 0.240214 2.05368 0.146446 2.14745C0.0526781 2.24121 0 2.36839 0 2.501C0 2.63361 0.0526781 2.76078 0.146446 2.85455C0.240214 2.94832 0.367392 3.001 0.5 3.001H1.5V13.501C1.5 13.6336 1.55268 13.7608 1.64645 13.8545C1.74021 13.9483 1.86739 14.001 2 14.001H12C12.1326 14.001 12.2598 13.9483 12.3536 13.8545C12.4473 13.7608 12.5 13.6336 12.5 13.501V3.001ZM5.5 2.001V1.001H8.5V2.001H5.5ZM11.5 13.001H2.5V3.001H11.5V13.001ZM8.5 11.001C8.63261 11.001 8.75979 10.9483 8.85355 10.8545C8.94732 10.7608 9 10.6336 9 10.501V5.501C9 5.36839 8.94732 5.24121 8.85355 5.14744C8.75979 5.05368 8.63261 5.001 8.5 5.001C8.36739 5.001 8.24021 5.05368 8.14645 5.14744C8.05268 5.24121 8 5.36839 8 5.501V10.501C8 10.6336 8.05268 10.7608 8.14645 10.8545C8.24021 10.9483 8.36739 11.001 8.5 11.001ZM5.5 11.001C5.63261 11.001 5.75979 10.9483 5.85355 10.8545C5.94732 10.7608 6 10.6336 6 10.501V5.501C6 5.36839 5.94732 5.24121 5.85355 5.14744C5.75979 5.05368 5.63261 5.001 5.5 5.001C5.36739 5.001 5.24021 5.05368 5.14645 5.14744C5.05268 5.24121 5 5.36839 5 5.501V10.501C5 10.6336 5.05268 10.7608 5.14645 10.8545C5.24021 10.9483 5.36739 11.001 5.5 11.001Z" fill="black"/>
</svg>
