<svg width="24" height="24" viewBox="0 0 24 24" fill="none" xmlns="http://www.w3.org/2000/svg">
<path d="M11.2057 3.50549C11.5208 2.8315 12.4792 2.8315 12.7943 3.50549L14.8721 7.95075C14.9961 8.2159 15.2441 8.40171 15.5334 8.4461L20.2553 9.17053C20.9596 9.27858 21.2477 10.1371 20.7511 10.6481L17.2754 14.2252C17.0821 14.4242 16.9943 14.703 17.0388 14.9768L17.851 19.9767C17.9685 20.6995 17.2004 21.2393 16.5601 20.8838L12.4255 18.5888C12.1609 18.4419 11.8391 18.4419 11.5745 18.5888L7.4399 20.8838C6.7996 21.2393 6.03155 20.6995 6.14897 19.9767L6.96117 14.9768C7.00565 14.703 6.9179 14.4242 6.72457 14.2252L3.24888 10.6481C2.75233 10.1371 3.04043 9.27858 3.74473 9.17053L8.46656 8.4461C8.75586 8.40171 9.00393 8.2159 9.12787 7.95075L11.2057 3.50549Z" fill="#FF375C"/>
</svg>
